<svg width="26" height="24" viewBox="0 0 26 24" fill="none" xmlns="http://www.w3.org/2000/svg">
<path d="M13.2486 23.9965C20.2064 23.9965 25.8468 18.6247 25.8468 11.9983C25.8468 5.37181 20.2064 0 13.2486 0C6.29079 0 0.650391 5.37181 0.650391 11.9983C0.650391 18.6247 6.29079 23.9965 13.2486 23.9965Z" fill="url(#paint0_linear_601_69032)"/>
<path d="M13.2232 6.96643L13.6296 6.29948C13.7521 6.10251 13.9511 5.95942 14.1836 5.90116C14.416 5.8429 14.6632 5.87417 14.8717 5.98819C15.0801 6.10221 15.233 6.28982 15.2973 6.51041C15.3616 6.731 15.3321 6.96683 15.2152 7.16686L11.3001 13.6187H14.1303C14.3367 13.6317 14.5365 13.6933 14.7118 13.7979C14.8872 13.9024 15.0326 14.0468 15.135 14.2179C15.2374 14.3891 15.2937 14.5818 15.2989 14.7787C15.304 14.9757 15.2578 15.1708 15.1644 15.3466H6.86603C6.73727 15.3621 6.60652 15.3514 6.48246 15.3151C6.3584 15.2787 6.24387 15.2177 6.1465 15.136C6.04913 15.0543 5.97114 14.9537 5.91772 14.8411C5.8643 14.7284 5.83667 14.6062 5.83667 14.4826C5.83667 14.359 5.8643 14.2368 5.91772 14.1242C5.97114 14.0115 6.04913 13.911 6.1465 13.8293C6.24387 13.7476 6.3584 13.6865 6.48246 13.6502C6.60652 13.6139 6.73727 13.6032 6.86603 13.6187H9.1919L12.1709 8.7012L11.242 7.16341C11.1734 7.06422 11.1268 6.95272 11.1051 6.83576C11.0834 6.7188 11.0871 6.59885 11.1159 6.48328C11.1447 6.36772 11.198 6.25898 11.2725 6.16377C11.3471 6.06855 11.4413 5.98886 11.5494 5.9296C11.6575 5.87035 11.7771 5.83277 11.901 5.81919C12.0249 5.80561 12.1504 5.8163 12.2698 5.85063C12.3892 5.88495 12.5 5.94216 12.5953 6.01876C12.6906 6.09535 12.7684 6.18971 12.824 6.29602L13.2232 6.96643ZM9.72166 16.2416L8.84357 17.693C8.72231 17.8933 8.52249 18.0394 8.28807 18.0994C8.05364 18.1593 7.80382 18.1281 7.59354 18.0127C7.38327 17.8972 7.22978 17.7069 7.16684 17.4836C7.10389 17.2603 7.13665 17.0224 7.25791 16.8222L7.90741 15.7578C8.22401 15.6403 8.57215 15.6239 8.89937 15.7111C9.2266 15.7984 9.51518 15.9846 9.72166 16.2416ZM17.2799 13.6152H19.6529C19.8737 13.6419 20.0768 13.7444 20.2239 13.9034C20.3711 14.0625 20.4523 14.2672 20.4523 14.4792C20.4523 14.6912 20.3711 14.8959 20.2239 15.0549C20.0768 15.214 19.8737 15.3164 19.6529 15.3431H18.314L19.2066 16.8118C19.3278 17.012 19.3606 17.25 19.2977 17.4732C19.2347 17.6965 19.0812 17.8868 18.871 18.0023C18.6607 18.1178 18.4109 18.149 18.1764 18.089C17.942 18.0291 17.7422 17.8829 17.6209 17.6826C16.1236 15.206 14.9999 13.3515 14.25 12.1189C13.9534 11.6637 13.8239 11.1277 13.8817 10.5948C13.9395 10.062 14.1813 9.56246 14.5694 9.17464C15.1668 10.1538 16.0643 11.6305 17.2617 13.6049L17.2799 13.6152Z" fill="#6C8693"/>
<defs>
<linearGradient id="paint0_linear_601_69032" x1="13.2486" y1="0" x2="13.2486" y2="23.9965" gradientUnits="userSpaceOnUse">
<stop stop-color="#786F21"/>
<stop offset="1" stop-color="#DECE3D"/>
</linearGradient>
</defs>
</svg>
