<svg width="251" height="157" viewBox="0 0 251 157" fill="none" xmlns="http://www.w3.org/2000/svg">
<path d="M250.956 77.7721C232.146 90.5943 213.717 102.962 195.384 115.42C176.383 128.243 157.381 141.156 138.38 153.978C137.234 154.705 136.088 155.524 134.847 156.07C133.128 156.888 131.792 156.615 131.887 154.342C131.887 153.614 131.887 152.886 131.887 152.159C131.887 102.871 131.887 53.583 131.887 4.20395C131.887 2.83988 130.932 1.02111 132.746 0.202673C134.274 -0.433889 135.707 0.747965 136.948 1.5664C174.378 26.4833 211.808 51.4916 249.142 76.4994C249.524 76.7722 249.906 77.0445 250.765 77.681L250.956 77.7721Z" fill="#CDC04D" fill-opacity="0.3"/>
<path d="M125.49 78.4997C125.49 103.053 125.49 127.606 125.49 152.25C125.49 155.615 124.726 157.069 120.906 156.706C117.087 156.342 113.172 156.706 109.257 156.706C101.046 156.706 98.181 153.887 98.181 145.884C98.181 124.15 98.181 102.325 98.181 80.5911C98.181 57.3111 98.181 34.1222 98.181 10.8422C98.181 2.56686 100.855 0.0205901 109.639 0.0205901C113.554 0.0205901 117.469 0.202465 121.288 0.0205901C124.535 -0.161285 125.49 0.838961 125.49 3.93084C125.299 17.8443 125.49 31.758 125.49 45.6714C125.49 56.5839 125.49 67.5872 125.49 78.4997Z" fill="#CDC04D" fill-opacity="0.3"/>
<path d="M43.3724 103.144C31.0549 103.144 18.8329 103.144 6.51542 103.144C0.786358 103.144 0.213453 102.598 0.213453 97.4149C0.213453 85.8659 -1.40979 86.4113 11.7671 86.4113C34.3014 86.4113 56.8357 86.4113 79.37 86.4113C85.672 86.4113 86.2449 87.0477 86.3404 93.0495C86.3404 99.7789 82.9029 103.144 76.028 103.144C65.1428 103.144 54.2576 103.144 43.3724 103.144Z" fill="#CDC04D" fill-opacity="0.3"/>
<path d="M51.3923 55.0371C61.3227 55.0371 71.253 55.128 81.1834 55.0371C85.0983 55.0371 86.3396 56.492 86.3396 60.0386C86.3396 70.4964 86.5305 70.4966 75.5498 70.4966C57.8852 70.4966 40.1252 70.4966 22.4605 70.4966C16.636 70.4966 16.3495 70.2237 16.3495 64.7675C16.3495 54.0369 15.3947 55.2192 26.2799 55.2192C34.6825 55.2192 43.0851 55.2192 51.4878 55.2192L51.3923 55.0371Z" fill="#CDC04D" fill-opacity="0.3"/>
<path d="M50.7257 118.33C60.1786 118.33 69.7271 118.421 79.18 118.33C83.1904 118.33 84.7181 119.603 84.7181 123.514C84.7181 133.426 84.8136 133.425 74.4058 133.425C57.3141 133.425 40.2224 133.425 23.1307 133.425C16.9242 133.425 16.4468 132.88 16.4468 127.151C16.4468 125.969 16.4468 124.787 16.4468 123.605C16.0648 119.694 17.9745 118.33 21.9849 118.421C31.6288 118.512 41.2727 118.421 50.9166 118.421L50.7257 118.33Z" fill="#CDC04D" fill-opacity="0.3"/>
<path d="M63.2327 41.9422C57.3127 41.9422 51.3927 41.9422 45.5681 41.9422C42.2262 41.9422 40.6984 40.6692 40.6984 37.4864C40.6984 24.7551 39.5526 25.6646 52.3475 25.6646C61.8005 25.6646 71.2534 25.7555 80.8018 25.6646C84.8122 25.6646 86.4354 27.1198 86.4354 30.9391C86.4354 43.4885 86.9129 41.8513 75.4547 41.9422C71.4444 41.9422 67.3386 41.9422 63.3282 41.9422H63.2327Z" fill="#CDC04D" fill-opacity="0.3"/>
</svg>
