<svg width="25" height="23" viewBox="0 0 25 23" fill="none" xmlns="http://www.w3.org/2000/svg">
<path d="M16.6324 5.64147C14.6057 7.04133 12.1787 7.83994 9.73033 7.92157C10.519 9.0524 11.0535 10.3451 11.2005 11.8024C11.3077 12.8701 11.1572 13.9896 10.798 15.0366C11.1529 14.9152 11.5093 14.7938 11.8656 14.6923C14.2898 14.0016 16.7559 13.8007 19.1858 14.0705C17.37 11.6839 16.4102 8.61015 16.6324 5.64147ZM23.1959 17.3749C19.8765 16.1192 16.0652 16.073 12.6671 17.0221C9.11984 18.0131 6.30804 20.1363 3.6879 22.6486C2.90491 23.3996 1.6023 22.4413 2.16948 21.4766C2.76436 20.4636 3.52392 19.5706 4.3779 18.7684C4.40984 18.4589 4.62351 18.1657 5.03524 18.1395C5.05227 18.1381 5.06647 18.131 5.08351 18.1295C6.07875 17.3125 7.19183 16.6296 8.35531 16.0546C9.22561 14.7356 9.58978 13.0192 9.2391 11.537C8.86287 9.94897 7.89389 8.66836 6.66865 7.62982C4.6299 7.18118 2.70189 6.21007 1.14017 4.62848C0.397643 3.87672 1.13875 2.43213 2.21066 2.7892C4.00734 3.38833 5.87431 4.30478 7.4417 5.53995C11.4724 6.33785 16.0872 4.79104 18.0607 1.07273C18.7287 -0.186584 20.5743 0.920816 19.9589 2.18226C17.6887 6.83405 19.4052 12.8694 24.0754 15.2879C25.2048 15.8729 24.419 17.8378 23.1959 17.3749Z" fill="#15B7B3"/>
</svg>
