<svg width="11" height="18" viewBox="0 0 11 18" fill="none" xmlns="http://www.w3.org/2000/svg">
<path fill-rule="evenodd" clip-rule="evenodd" d="M6.15039 4C6.15039 2.89543 7.04582 2 8.15039 2H9.15039C9.70267 2 10.1504 1.55228 10.1504 1C10.1504 0.447715 9.70267 0 9.15039 0H8.15039C5.94125 0 4.15039 1.79086 4.15039 4V6H1.65039C1.09811 6 0.650391 6.44772 0.650391 7C0.650391 7.55228 1.09811 8 1.65039 8H4.15039V17C4.15039 17.5523 4.59811 18 5.15039 18C5.70268 18 6.15039 17.5523 6.15039 17V8H8.65039C9.20267 8 9.65039 7.55228 9.65039 7C9.65039 6.44772 9.20267 6 8.65039 6H6.15039V4Z" fill="#786F21"/>
</svg>
