<svg width="25" height="24" viewBox="0 0 25 24" fill="none" xmlns="http://www.w3.org/2000/svg">
<path fill-rule="evenodd" clip-rule="evenodd" d="M12.2002 15C13.857 15 15.2002 13.6569 15.2002 12C15.2002 10.3431 13.857 9 12.2002 9C10.5433 9 9.2002 10.3431 9.2002 12C9.2002 13.6569 10.5433 15 12.2002 15ZM12.2002 17C14.9616 17 17.2002 14.7614 17.2002 12C17.2002 9.23858 14.9616 7 12.2002 7C9.43877 7 7.2002 9.23858 7.2002 12C7.2002 14.7614 9.43877 17 12.2002 17Z" fill="#786F21"/>
<path d="M18.2002 7C18.2002 7.55228 17.7525 8 17.2002 8C16.6479 8 16.2002 7.55228 16.2002 7C16.2002 6.44772 16.6479 6 17.2002 6C17.7525 6 18.2002 6.44772 18.2002 7Z" fill="#786F21"/>
<path fill-rule="evenodd" clip-rule="evenodd" d="M16.2002 4H8.2002C5.99106 4 4.2002 5.79086 4.2002 8V16C4.2002 18.2091 5.99106 20 8.2002 20H16.2002C18.4093 20 20.2002 18.2091 20.2002 16V8C20.2002 5.79086 18.4093 4 16.2002 4ZM8.2002 2C4.88649 2 2.2002 4.68629 2.2002 8V16C2.2002 19.3137 4.88649 22 8.2002 22H16.2002C19.5139 22 22.2002 19.3137 22.2002 16V8C22.2002 4.68629 19.5139 2 16.2002 2H8.2002Z" fill="#786F21"/>
</svg>
