<svg width="21" height="20" viewBox="0 0 21 20" fill="none" xmlns="http://www.w3.org/2000/svg">
<path fill-rule="evenodd" clip-rule="evenodd" d="M14.2002 2H6.2002C3.99106 2 2.2002 3.79086 2.2002 6V14C2.2002 16.2091 3.99106 18 6.2002 18H14.2002C16.4093 18 18.2002 16.2091 18.2002 14V6C18.2002 3.79086 16.4093 2 14.2002 2ZM6.2002 0C2.88649 0 0.200195 2.68629 0.200195 6V14C0.200195 17.3137 2.88649 20 6.2002 20H14.2002C17.5139 20 20.2002 17.3137 20.2002 14V6C20.2002 2.68629 17.5139 0 14.2002 0H6.2002Z" fill="#786F21"/>
</svg>
