<svg width="26" height="24" viewBox="0 0 26 24" fill="none" xmlns="http://www.w3.org/2000/svg">
<path fill-rule="evenodd" clip-rule="evenodd" d="M18.0979 13.8056C18.9678 12.7721 19.4868 11.4639 19.4868 10.0348C19.4868 6.70186 16.6498 4 13.1503 4C9.6507 4 6.81375 6.70186 6.81375 10.0348C6.81375 11.4637 7.33261 12.7718 8.2024 13.8053L8.20866 13.8127C8.39281 14.0312 8.5633 14.2613 8.74042 14.4849C9.04806 14.8734 9.48187 15.4189 9.9859 16.0462C10.9252 17.2153 12.0985 18.6565 13.151 19.8938C14.2068 18.6539 15.3828 17.2104 16.324 16.0398C16.8289 15.4117 17.2634 14.8657 17.5715 14.4769C17.7477 14.2545 17.9149 14.023 18.0979 13.8056ZM19.7395 15.0589C19.7395 15.0589 19.7377 15.0611 19.7364 15.0627C19.6826 15.1312 19.1889 15.7595 18.4734 16.6544C17.412 17.9819 15.8625 19.8961 14.5378 21.4393C13.8132 22.2834 12.4876 22.2831 11.7634 21.4386C9.49924 18.7985 6.57094 15.0646 6.57094 15.0646L6.56412 15.0565C5.4063 13.681 4.71375 11.9349 4.71375 10.0348C4.71375 5.5973 8.4909 2 13.1503 2C17.8096 2 21.5868 5.5973 21.5868 10.0348C21.5868 11.217 21.3187 12.3396 20.8372 13.3505C20.546 13.962 20.1766 14.5326 19.7413 15.0507L19.7382 15.0543L19.7364 15.0565H19.7413L19.7395 15.0589Z" fill="#786F21"/>
<path fill-rule="evenodd" clip-rule="evenodd" d="M13.1502 11C13.7301 11 14.2002 10.5523 14.2002 10C14.2002 9.44771 13.7301 9 13.1502 9C12.5703 9 12.1002 9.44771 12.1002 10C12.1002 10.5523 12.5703 11 13.1502 11ZM16.3002 10C16.3002 11.6569 14.8899 13 13.1502 13C11.4105 13 10.0002 11.6569 10.0002 10C10.0002 8.34315 11.4105 7 13.1502 7C14.8899 7 16.3002 8.34315 16.3002 10Z" fill="#786F21"/>
</svg>
