<svg width="81" height="20" viewBox="0 0 81 20" fill="none" xmlns="http://www.w3.org/2000/svg">
<path d="M21.5528 8.92489C19.9364 10.3349 18.3529 11.6949 16.7775 13.0649C15.1447 14.4749 13.5119 15.8949 11.8791 17.3049C11.7806 17.3849 11.6822 17.4749 11.5755 17.5349C11.4278 17.6249 11.3129 17.5949 11.3211 17.3449C11.3211 17.2649 11.3211 17.1849 11.3211 17.1049C11.3211 11.6849 11.3211 6.26493 11.3211 0.834927C11.3211 0.684927 11.2391 0.484925 11.395 0.394925C11.5263 0.324925 11.6493 0.454888 11.756 0.544888C14.9724 3.28489 18.1888 6.03494 21.3969 8.78494C21.4298 8.81494 21.4626 8.84488 21.5364 8.91488L21.5528 8.92489Z" fill="#127C79"/>
<path d="M10.7712 9.00532C10.7712 11.7053 10.7712 14.4053 10.7712 17.1153C10.7712 17.4853 10.7056 17.6453 10.3774 17.6053C10.0492 17.5653 9.71276 17.6053 9.37635 17.6053C8.67072 17.6053 8.42456 17.2953 8.42456 16.4153C8.42456 14.0253 8.42456 11.6253 8.42456 9.2353C8.42456 6.6753 8.42456 4.12531 8.42456 1.56531C8.42456 0.655313 8.6543 0.375311 9.40917 0.375311C9.74557 0.375311 10.082 0.395311 10.4102 0.375311C10.6892 0.355311 10.7712 0.465304 10.7712 0.805304C10.7548 2.3353 10.7712 3.86533 10.7712 5.39533C10.7712 6.59533 10.7712 7.80532 10.7712 9.00532Z" fill="#127C79"/>
<path d="M3.71413 11.7155C2.65568 11.7155 1.60544 11.7155 0.546984 11.7155C0.0546807 11.7155 0.00545051 11.6555 0.00545051 11.0855C0.00545051 9.81547 -0.134036 9.87545 0.998261 9.87545C2.93465 9.87545 4.87105 9.87545 6.80744 9.87545C7.34897 9.87545 7.3982 9.94543 7.40641 10.6054C7.40641 11.3454 7.11102 11.7155 6.52026 11.7155C5.58488 11.7155 4.64951 11.7155 3.71413 11.7155Z" fill="#127C79"/>
<path d="M4.4042 6.42578C5.25752 6.42578 6.11085 6.43578 6.96417 6.42578C7.30058 6.42578 7.40725 6.58577 7.40725 6.97577C7.40725 8.12577 7.42365 8.12579 6.48007 8.12579C4.96214 8.12579 3.436 8.12579 1.91807 8.12579C1.41756 8.12579 1.39294 8.09579 1.39294 7.49579C1.39294 6.31579 1.31089 6.4458 2.24627 6.4458C2.96831 6.4458 3.69036 6.4458 4.4124 6.4458L4.4042 6.42578Z" fill="#127C79"/>
<path d="M4.34548 13.3848C5.15778 13.3848 5.97828 13.3948 6.79058 13.3848C7.13519 13.3848 7.26647 13.5248 7.26647 13.9548C7.26647 15.0448 7.27468 15.0447 6.38033 15.0447C4.91163 15.0447 3.44292 15.0447 1.97422 15.0447C1.44089 15.0447 1.39986 14.9847 1.39986 14.3547C1.39986 14.2247 1.39986 14.0948 1.39986 13.9648C1.36704 13.5348 1.53114 13.3848 1.87576 13.3948C2.70447 13.4048 3.53318 13.3948 4.36189 13.3948L4.34548 13.3848Z" fill="#127C79"/>
<path d="M5.42108 4.9849C4.91237 4.9849 4.40366 4.9849 3.90315 4.9849C3.61597 4.9849 3.48469 4.84491 3.48469 4.49491C3.48469 3.09491 3.38623 3.19492 4.48571 3.19492C5.29801 3.19492 6.11031 3.20492 6.93081 3.19492C7.27543 3.19492 7.41491 3.35494 7.41491 3.77494C7.41491 5.15494 7.45594 4.9749 6.47133 4.9849C6.12672 4.9849 5.7739 4.9849 5.42929 4.9849H5.42108Z" fill="#127C79"/>
<path d="M39.7477 5.23816C39.1405 7.48816 38.4267 9.55815 37.7867 11.6581C37.6718 12.0381 37.5406 12.1882 37.1959 12.1682C36.4903 12.1282 36.4903 12.1582 36.2852 11.3582C35.7272 9.14816 35.1857 6.93816 34.6114 4.73816C34.5129 4.36816 34.5867 4.32816 34.8739 4.29816C35.3334 4.23816 35.5057 4.43815 35.6288 4.97815C36.0883 7.00815 36.7036 8.99818 37.0565 11.0682C37.1713 11.0482 37.1795 10.9381 37.2042 10.8481C37.6718 8.70815 38.4595 6.70818 39.0749 4.62818C39.1405 4.39818 39.2308 4.30816 39.4441 4.29816C40.3303 4.28816 40.3467 4.26814 40.6503 5.27814C41.2328 7.19814 41.9303 9.05816 42.3569 11.0482C42.4636 11.0282 42.4718 10.9382 42.48 10.8782C42.8082 8.85818 43.4318 6.94815 43.8749 4.97815C43.9897 4.44815 44.1702 4.24815 44.6297 4.28815C44.9579 4.31815 44.9907 4.38817 44.8923 4.74817C44.2851 7.06817 43.6861 9.39815 43.1036 11.7282C43.0215 12.0382 42.9313 12.1681 42.6441 12.1581C41.8482 12.1381 41.8482 12.1582 41.5692 11.2382C40.9703 9.27816 40.3221 7.33815 39.7559 5.22815L39.7477 5.23816Z" fill="#127C79"/>
<path d="M49.5687 8.72725C49.5687 9.73725 49.5604 10.7473 49.5687 11.7573C49.5687 12.0573 49.5194 12.1773 49.2487 12.1673C48.6661 12.1473 48.6661 12.1673 48.6661 11.4773C48.6661 9.56725 48.6579 7.66728 48.6661 5.75728C48.6661 5.38728 48.5923 5.23727 48.2887 5.30727C48.223 5.31727 48.1574 5.30727 48.0917 5.30727C47.6979 5.30727 47.4682 4.84725 47.6487 4.41725C47.6979 4.30725 47.7717 4.31727 47.8538 4.30727C47.9851 4.30727 48.1246 4.29727 48.2558 4.30727C48.5348 4.33727 48.6579 4.25726 48.7153 3.85726C48.9287 2.35726 49.7738 1.57727 51.185 1.49727C51.3491 1.49727 51.505 1.51727 51.6691 1.49727C52.0056 1.43727 52.0548 1.62726 52.063 1.98726C52.0712 2.37726 51.9563 2.44727 51.6691 2.43727C51.2425 2.41727 50.8158 2.40728 50.3974 2.56728C49.864 2.77728 49.5604 3.32728 49.5522 4.00728C49.5522 4.24728 49.6179 4.31727 49.8066 4.30727C50.742 4.30727 51.6774 4.29727 52.6127 4.30727C52.8261 4.30727 52.8917 4.20729 52.8835 3.95729C52.8753 3.59729 52.8999 3.23729 52.8753 2.88729C52.8425 2.49729 52.9738 2.38727 53.2609 2.43727C53.343 2.44727 53.425 2.44727 53.4989 2.43727C53.7204 2.40727 53.8107 2.49725 53.8025 2.78725C53.7861 3.14725 53.8107 3.50726 53.7943 3.85726C53.7778 4.18726 53.8517 4.31726 54.1471 4.29726C54.746 4.26726 55.3532 4.30724 55.9522 4.27724C56.3706 4.25724 56.2147 4.60724 56.2312 4.83724C56.2476 5.07724 56.2804 5.30725 55.944 5.28725C55.345 5.24725 54.7378 5.28729 54.1389 5.26729C53.9009 5.26729 53.786 5.30724 53.7943 5.65724C53.8107 7.00724 53.7943 8.35724 53.8025 9.71724C53.8025 10.6572 54.1307 11.0373 54.9101 11.0573C55.1891 11.0573 55.4763 11.0973 55.7553 11.0573C56.1901 10.9773 56.305 11.2173 56.2312 11.6773C56.2065 11.8373 56.3542 12.1273 56.0753 12.1273C55.4763 12.1173 54.8691 12.2173 54.2784 12.0673C53.4661 11.8673 53.0148 11.2673 52.9327 10.2673C52.8261 8.90729 52.9081 7.53725 52.8917 6.16725C52.8835 5.28725 52.8917 5.28725 52.1532 5.28725C51.4066 5.28725 50.6517 5.30725 49.9051 5.28725C49.6179 5.27725 49.5522 5.38725 49.5604 5.72725C49.5769 6.71725 49.5604 7.71729 49.5604 8.70729L49.5687 8.72725Z" fill="#127C79"/>
<path d="M30.5826 1.37776C31.1323 1.34776 31.7641 1.45775 32.3549 1.79775C33.3313 2.34775 33.8154 3.30773 33.922 4.59773C33.9466 4.90773 33.8892 5.06778 33.6102 5.01778C33.4954 4.99778 33.3723 5.00778 33.2492 5.01778C33.0933 5.02778 33.0195 4.97777 32.9948 4.75777C32.8225 3.24777 32.4451 2.75774 31.2143 2.53774C30.5005 2.40774 29.7785 2.41775 29.0728 2.67775C28.4 2.92775 28.0718 3.39774 28.0554 4.10774C28.0308 5.03774 28.2769 5.49776 28.999 5.80776C29.8851 6.18776 30.8205 6.31778 31.7231 6.57778C32.1415 6.69778 32.5518 6.83772 32.9292 7.08772C34.3323 8.01772 34.4553 10.3778 33.1589 11.5178C32.3138 12.2678 31.3292 12.3878 30.3282 12.3278C29.5898 12.2778 28.8677 12.1077 28.2359 11.5877C27.5057 10.9877 27.1446 10.1477 27.079 9.08772C27.0626 8.76772 27.1282 8.62775 27.4072 8.67775C27.5221 8.69775 27.6452 8.68775 27.7682 8.67775C27.9405 8.65775 28.0062 8.73778 27.998 8.95778C27.9898 10.0878 28.4739 10.8678 29.598 11.1178C30.3692 11.2878 31.1405 11.2977 31.9036 11.0877C32.6995 10.8677 33.0851 10.3578 33.1097 9.57778C33.1425 8.61778 32.8307 8.08777 32.002 7.75777C31.1733 7.42777 30.3036 7.31772 29.4585 7.08772C29.04 6.96772 28.6298 6.82772 28.2523 6.58772C26.8575 5.68772 26.6852 3.42775 27.9405 2.23775C28.6872 1.53775 29.5651 1.36776 30.5744 1.37776H30.5826Z" fill="#127C79"/>
<path d="M59.5304 6.81759C59.5304 5.20759 59.5304 3.59757 59.5304 1.97757C59.5304 1.63757 59.5714 1.48758 59.8914 1.49758C61.2289 1.54758 62.5663 1.38759 63.8955 1.56759C65.6022 1.79759 66.5704 3.23757 66.4965 5.29757C66.4227 7.30757 65.3478 8.62756 63.6494 8.71756C62.755 8.76756 61.8607 8.75756 60.9663 8.71756C60.5643 8.70756 60.4084 8.80755 60.433 9.33755C60.474 10.1476 60.433 10.9676 60.4494 11.7776C60.4494 12.0876 60.3755 12.1676 60.1294 12.1576C59.3827 12.1276 59.5304 12.2476 59.5304 11.4476C59.5222 9.8976 59.5304 8.35758 59.5304 6.80758V6.81759ZM60.4494 5.1376C60.4494 5.8676 60.4494 6.60755 60.4494 7.33755C60.4494 7.58755 60.4986 7.68758 60.7202 7.67758C61.7212 7.65758 62.7222 7.68755 63.7232 7.64755C64.6504 7.60755 65.2493 7.03756 65.4709 6.09756C65.5775 5.65756 65.594 5.19758 65.5611 4.74758C65.4709 3.52758 64.9704 2.82756 63.9776 2.65756C62.8781 2.46756 61.7622 2.6176 60.6545 2.5776C60.4494 2.5776 60.4576 2.72755 60.4576 2.89755C60.4576 3.64755 60.4576 4.39755 60.4576 5.14755L60.4494 5.1376Z" fill="#127C79"/>
<path d="M70.656 8.55756C69.8519 8.55756 69.056 8.56756 68.2519 8.55756C67.9976 8.55756 67.9319 8.63757 67.9648 8.94757C68.1043 10.3476 68.695 11.1176 69.8437 11.3276C70.4345 11.4376 71.017 11.3776 71.575 11.1176C72.0755 10.8876 72.3791 10.4475 72.4365 9.77753C72.494 9.09753 72.9124 9.51757 73.1504 9.44757C73.4539 9.36757 73.3473 9.68757 73.3309 9.87757C73.2652 10.6676 72.9206 11.2675 72.3873 11.6575C71.1565 12.5475 69.8683 12.6176 68.613 11.8176C67.4725 11.0876 67.1032 9.76755 67.0786 8.29755C67.0294 5.16755 69.4499 3.24758 71.8047 4.51758C73.1339 5.23758 73.5524 6.84755 73.4211 8.29755C73.3965 8.58755 73.2652 8.57758 73.0929 8.57758C72.2806 8.57758 71.4601 8.57758 70.6478 8.57758L70.656 8.55756ZM70.2704 7.84754C70.9268 7.84754 71.575 7.81755 72.2314 7.85755C72.5596 7.87755 72.6006 7.71757 72.5842 7.37757C72.5186 6.14757 71.9442 5.35753 70.8447 5.15753C69.5155 4.91753 68.2027 5.37758 67.9648 7.45758C67.9319 7.73758 67.9484 7.86755 68.2273 7.85755C68.9083 7.82755 69.5894 7.85755 70.2704 7.85755V7.84754Z" fill="#127C79"/>
<path d="M75.4474 6.43788C76.1694 4.65788 77.2279 3.9079 78.6391 4.2079C79.8042 4.4679 80.6329 5.54787 80.6904 7.04787C80.7478 8.65787 80.7068 10.2679 80.715 11.8879C80.715 12.1079 80.6494 12.1779 80.4771 12.1579C80.354 12.1479 80.2309 12.1379 80.116 12.1579C79.8699 12.1979 79.8042 12.0879 79.8042 11.7879C79.8207 10.4879 79.8042 9.17788 79.8042 7.87788C79.8042 6.17788 79.2135 5.29785 78.0073 5.21785C76.5797 5.12785 75.6689 6.03785 75.554 7.71785C75.4638 9.04785 75.513 10.3878 75.5294 11.7178C75.5294 12.2778 75.2668 12.1379 75.0207 12.1579C74.7581 12.1779 74.5858 12.1678 74.594 11.7178C74.6186 9.38785 74.6186 7.05786 74.594 4.72786C74.594 4.23786 74.8074 4.32788 75.0453 4.30788C75.3079 4.28788 75.472 4.32787 75.4474 4.73787C75.4145 5.29787 75.4474 5.86787 75.4474 6.42787V6.43788Z" fill="#127C79"/>
<path d="M46.8034 8.22801C46.8034 9.39801 46.7952 10.568 46.8034 11.738C46.8034 12.088 46.7131 12.168 46.4424 12.168C45.8844 12.148 45.8844 12.1681 45.8844 11.4581C45.8844 9.21805 45.9008 6.96801 45.8762 4.72801C45.8762 4.23801 46.0813 4.29804 46.3193 4.31804C46.5408 4.32804 46.828 4.178 46.8116 4.718C46.7788 5.888 46.8034 7.05801 46.8034 8.22801Z" fill="#127C79"/>
<path d="M62.7954 18.1873C63.0416 18.6373 63.2877 19.0772 63.5421 19.5272C63.4108 19.6472 63.3123 19.6072 63.2303 19.4772C63.1647 19.3772 63.1072 19.2672 63.0498 19.1572C62.5 18.1772 62.5083 18.1773 61.5483 18.2573C61.3595 18.2673 61.2857 18.3373 61.2939 18.5673C61.3021 18.8473 61.2939 19.1172 61.2939 19.3972C61.2939 19.4972 61.2857 19.5872 61.1708 19.5972C61.056 19.5972 61.0396 19.5072 61.0396 19.4072C61.0396 18.1572 61.0396 16.8972 61.0396 15.6472C61.0396 15.4572 61.138 15.4473 61.2529 15.4473C61.6549 15.4473 62.057 15.4472 62.4508 15.4772C63.0334 15.5372 63.419 15.9372 63.5093 16.5372C63.6159 17.1972 63.4108 17.7072 62.9021 18.0872C62.8693 18.1072 62.8447 18.1373 62.7954 18.1873ZM61.2857 16.8372C61.2857 17.6039 61.5975 17.9773 62.2211 17.9573C62.2867 17.9573 62.3524 17.9573 62.418 17.9373C63.0088 17.8573 63.2959 17.4272 63.2467 16.7172C63.2057 16.0972 62.8857 15.7873 62.2375 15.7473C61.5975 15.7073 61.2775 16.0706 61.2775 16.8372H61.2857Z" fill="#127C79"/>
<path d="M51.8826 18.1879C52.1288 18.6379 52.3749 19.0779 52.6293 19.5379C52.498 19.6279 52.3996 19.6279 52.3175 19.4879C52.2519 19.3779 52.178 19.2879 52.137 19.1679C51.858 18.3579 51.3493 18.1279 50.6683 18.2579C50.455 18.2979 50.3483 18.3379 50.3729 18.6179C50.3893 18.8579 50.3729 19.1079 50.3729 19.3479C50.3729 19.4579 50.3975 19.5879 50.258 19.5979C50.1104 19.5979 50.1268 19.4779 50.1268 19.3679C50.1268 18.1479 50.1268 16.928 50.1268 15.708C50.1268 15.518 50.1842 15.448 50.3401 15.458C50.7421 15.478 51.1442 15.4579 51.538 15.4979C52.1206 15.5579 52.5062 15.9579 52.6047 16.5579C52.7114 17.2179 52.5144 17.7379 51.9975 18.1079C51.9647 18.1279 51.9319 18.1579 51.8826 18.1979V18.1879ZM50.3811 16.8079C50.3811 17.6079 50.7121 17.9913 51.3739 17.958C51.3739 17.958 51.456 17.9579 51.497 17.9479C52.1452 17.8679 52.4652 17.3479 52.3339 16.5679C52.2437 16.0279 51.9237 15.7779 51.2919 15.7579C50.6902 15.7313 50.3893 16.0846 50.3893 16.8179L50.3811 16.8079Z" fill="#127C79"/>
<path d="M34.4062 16.2077C34.4062 17.2077 34.4062 18.2176 34.4062 19.2176C34.4062 19.3476 34.4965 19.5977 34.2668 19.5777C34.078 19.5577 34.1601 19.3477 34.1601 19.2277C34.1601 18.0877 34.1601 16.9477 34.1601 15.8077C34.1601 15.6877 34.0944 15.5276 34.2339 15.4676C34.3816 15.4076 34.4473 15.5677 34.5129 15.6777C35.0873 16.5977 35.6534 17.5277 36.2196 18.4477C36.3098 18.5877 36.4001 18.7277 36.5642 18.9977C36.5642 18.5977 36.5642 18.3377 36.5642 18.0777C36.5642 17.2977 36.5642 16.5177 36.5642 15.7277C36.5642 15.6077 36.5231 15.4377 36.7037 15.4477C36.8513 15.4477 36.8185 15.5977 36.8185 15.7077C36.8185 16.9177 36.8185 18.1177 36.8185 19.3277C36.8185 19.4177 36.8595 19.5377 36.7529 19.5777C36.597 19.6377 36.5395 19.4877 36.4739 19.3677C35.916 18.4677 35.3662 17.5677 34.8165 16.6677C34.7098 16.4977 34.6114 16.3377 34.5047 16.1677C34.4801 16.1777 34.4473 16.1877 34.4226 16.2077H34.4062Z" fill="#127C79"/>
<path d="M55.6565 17.5176C55.6565 16.9476 55.6647 16.3775 55.6565 15.8075C55.6565 15.5475 55.6893 15.4176 55.9355 15.4376C56.3375 15.4676 56.7396 15.4375 57.1334 15.4875C57.7816 15.5675 58.1508 16.0875 58.1508 16.8475C58.1508 17.6075 57.7734 18.1175 57.1334 18.2175C56.9775 18.2475 56.8134 18.2476 56.6575 18.2576C56.1652 18.2576 55.9191 18.5509 55.9191 19.1376C55.9191 19.2176 55.9191 19.2976 55.9191 19.3776C55.9191 19.4776 55.9191 19.5775 55.8124 19.5875C55.6729 19.5975 55.6729 19.4875 55.6729 19.3675C55.6729 18.7475 55.6729 18.1276 55.6729 17.5176H55.6565ZM55.9108 16.8475C55.9108 17.6209 56.2254 17.9909 56.8544 17.9576C56.9447 17.9576 57.0431 17.9475 57.1334 17.9275C57.6093 17.8375 57.8637 17.4875 57.8801 16.9075C57.8965 16.1775 57.5847 15.8076 56.9037 15.7576C56.2418 15.7109 55.9108 16.0775 55.9108 16.8575V16.8475Z" fill="#127C79"/>
<path d="M70.9604 19.6278C70.5912 19.6278 70.2466 19.5178 69.9512 19.2478C69.8773 19.1778 69.7296 19.1078 69.8445 18.9478C69.943 18.8078 70.0086 18.9578 70.0743 19.0178C70.4517 19.3278 70.8701 19.3878 71.2968 19.2978C71.6086 19.2278 71.8383 19.0378 71.8794 18.6078C71.9122 18.1878 71.7153 17.9678 71.4281 17.8478C71.1245 17.7278 70.8127 17.6478 70.5091 17.5178C70.0579 17.3278 69.8445 16.9778 69.8609 16.4778C69.8773 15.9778 70.1563 15.6078 70.6076 15.4678C71.026 15.3378 71.4281 15.4078 71.8137 15.6478C71.904 15.7078 72.0353 15.7578 71.9532 15.9278C71.8794 16.0878 71.7973 15.9478 71.7153 15.9078C71.3789 15.7178 71.026 15.6578 70.665 15.7578C70.345 15.8478 70.1399 16.0778 70.1153 16.4878C70.0907 16.8778 70.2876 17.0878 70.5584 17.2078C70.8127 17.3178 71.0753 17.3778 71.3296 17.4778C71.9286 17.6978 72.183 18.0578 72.1419 18.6178C72.1009 19.1778 71.6989 19.5678 71.1163 19.6178C71.0671 19.6178 71.0096 19.6178 70.9604 19.6178V19.6278Z" fill="#127C79"/>
<path d="M28.8604 17.4878C28.8604 16.9178 28.8686 16.3478 28.8604 15.7778C28.8604 15.5278 28.9014 15.4278 29.1229 15.4378C29.6809 15.4578 30.247 15.4378 30.8049 15.4378C30.9034 15.4378 31.0429 15.3878 31.0347 15.5978C31.0265 15.7678 30.9034 15.7278 30.8214 15.7278C30.3537 15.7278 29.886 15.7378 29.4183 15.7278C29.1968 15.7278 29.1229 15.7878 29.1147 16.0778C29.0901 17.3378 29.0819 17.3378 30.1075 17.3378C30.2716 17.3378 30.4275 17.3378 30.5916 17.3378C30.6901 17.3378 30.8378 17.2878 30.846 17.4778C30.8542 17.6878 30.6983 17.6278 30.608 17.6278C30.2224 17.6278 29.8285 17.6478 29.4429 17.6278C29.2132 17.6178 29.1147 17.6678 29.1147 17.9978C29.0983 19.2978 29.0901 19.2978 30.1568 19.2978C30.4275 19.2978 30.6901 19.2978 30.9608 19.2978C31.0429 19.2978 31.1249 19.3078 31.1249 19.4478C31.1249 19.5878 31.0429 19.5878 30.9608 19.5878C30.3209 19.5878 29.6809 19.5878 29.0327 19.5878C28.8439 19.5878 28.8686 19.4278 28.8686 19.2878C28.8686 18.6878 28.8686 18.0778 28.8686 17.4778L28.8604 17.4878Z" fill="#127C79"/>
<path d="M44.8264 17.518C44.8264 16.948 44.8346 16.3779 44.8264 15.8079C44.8264 15.5379 44.8756 15.428 45.1136 15.438C45.6633 15.458 46.2131 15.438 46.7546 15.438C46.8449 15.438 46.9926 15.368 47.0008 15.578C47.0008 15.788 46.8613 15.7379 46.7628 15.7379C46.3115 15.7379 45.852 15.7579 45.4008 15.7379C45.1628 15.7279 45.0808 15.7979 45.0808 16.1079C45.0726 17.3379 45.0562 17.3379 46.0572 17.3379C46.2213 17.3379 46.3772 17.3379 46.5413 17.3379C46.6479 17.3379 46.8202 17.268 46.812 17.508C46.812 17.698 46.6479 17.628 46.5577 17.628C46.172 17.628 45.7782 17.648 45.3926 17.628C45.1792 17.628 45.089 17.6779 45.089 17.9679C45.0562 19.2879 45.048 19.2879 46.1474 19.2879C46.4182 19.2879 46.6808 19.2879 46.9515 19.2879C47.0418 19.2879 47.0992 19.338 47.0992 19.458C47.0992 19.568 47.0254 19.578 46.9597 19.578C46.3033 19.578 45.6469 19.578 44.9987 19.578C44.8018 19.578 44.8592 19.388 44.851 19.258C44.851 18.668 44.851 18.088 44.851 17.498L44.8264 17.518Z" fill="#127C79"/>
<path d="M75.0786 17.4974C75.0786 16.9574 75.095 16.4175 75.0786 15.8875C75.0704 15.5575 75.1278 15.4274 75.4232 15.4374C75.9319 15.4674 76.4406 15.4374 76.9494 15.4474C77.056 15.4474 77.2612 15.3274 77.253 15.6074C77.253 15.8274 77.0642 15.7374 76.9658 15.7374C76.5227 15.7374 76.0796 15.7574 75.6448 15.7374C75.4314 15.7374 75.3494 15.7874 75.3412 16.0874C75.3166 17.3474 75.3084 17.3474 76.334 17.3474C76.4653 17.3474 76.6047 17.3374 76.736 17.3474C76.8509 17.3674 77.056 17.2474 77.0642 17.4874C77.0724 17.7474 76.8673 17.6275 76.7524 17.6375C76.375 17.6575 76.0058 17.6575 75.6283 17.6375C75.3904 17.6275 75.3412 17.7374 75.3412 17.9974C75.3166 19.2974 75.3084 19.2974 76.375 19.2974C76.6458 19.2974 76.9083 19.2974 77.1791 19.2974C77.2612 19.2974 77.3432 19.3074 77.3514 19.4474C77.3514 19.5874 77.2694 19.5974 77.1873 19.5974C76.5473 19.5974 75.9073 19.5974 75.2591 19.5974C75.0704 19.5974 75.0868 19.4474 75.0868 19.2974C75.0868 18.6974 75.0868 18.0874 75.0868 17.4874L75.0786 17.4974Z" fill="#127C79"/>
<path d="M40.7081 17.6873C40.7081 17.1673 40.6917 16.6473 40.7081 16.1273C40.7163 15.8173 40.626 15.7273 40.3881 15.7473C40.1583 15.7673 39.9368 15.7473 39.7071 15.7473C39.625 15.7473 39.543 15.7272 39.543 15.5872C39.543 15.4472 39.6332 15.4473 39.7153 15.4473C40.4619 15.4473 41.2168 15.4473 41.9635 15.4473C42.0537 15.4473 42.1276 15.4672 42.1276 15.6072C42.1276 15.7372 42.0455 15.7573 41.9553 15.7573C41.7583 15.7573 41.5532 15.7873 41.3563 15.7573C41.0199 15.6973 40.9624 15.8773 40.9706 16.2473C40.9871 17.2573 40.9789 18.2672 40.9706 19.2772C40.9706 19.3972 41.0445 19.6072 40.8394 19.6072C40.6424 19.6072 40.7163 19.3972 40.7081 19.2772C40.7081 18.7572 40.7081 18.2372 40.7081 17.7172V17.6873Z" fill="#127C79"/>
<path d="M45.8855 2.4076C45.8855 2.3476 45.8855 2.2776 45.8855 2.2176C45.8855 1.5276 46.0743 1.35764 46.6486 1.51764C46.7963 1.55764 46.7963 1.66761 46.7963 1.79761C46.7963 2.10761 46.7963 2.4176 46.7963 2.7176C46.7963 3.4376 46.8537 3.34759 46.2876 3.33759C45.7871 3.33759 45.8855 3.4676 45.8773 2.4076H45.8855Z" fill="#127C79"/>
<path d="M66.5695 17.5373C66.5695 16.9373 66.5695 16.3373 66.5695 15.7373C66.5695 15.6173 66.5367 15.4572 66.7088 15.4672C66.848 15.4672 66.8235 15.6172 66.8235 15.7172C66.8235 16.9172 66.8235 18.1173 66.8235 19.3173C66.8235 19.4373 66.8644 19.6072 66.6842 19.5872C66.5121 19.5672 66.5695 19.3973 66.5695 19.2873C66.5695 18.7073 66.5695 18.1173 66.5695 17.5373Z" fill="#127C79"/>
</svg>
