<svg width="21" height="16" viewBox="0 0 21 16" fill="none" xmlns="http://www.w3.org/2000/svg">
<path fill-rule="evenodd" clip-rule="evenodd" d="M3.65039 2H17.6504C18.0366 2 18.3717 2.21897 18.5383 2.53954L11.2051 7.42834C10.8692 7.65227 10.4316 7.65227 10.0957 7.42834L2.76248 2.53953C2.92907 2.21896 3.26416 2 3.65039 2ZM2.65039 4.8685V13C2.65039 13.5523 3.09811 14 3.65039 14H17.6504C18.2027 14 18.6504 13.5523 18.6504 13V4.86852L12.3145 9.09244C11.3068 9.76424 9.994 9.76424 8.9863 9.09244L2.65039 4.8685ZM0.650391 3C0.650391 1.34315 1.99354 0 3.65039 0H17.6504C19.3072 0 20.6504 1.34315 20.6504 3V13C20.6504 14.6569 19.3072 16 17.6504 16H3.65039C1.99354 16 0.650391 14.6569 0.650391 13V3Z" fill="#786F21"/>
</svg>
