<svg width="19" height="20" viewBox="0 0 19 20" fill="none" xmlns="http://www.w3.org/2000/svg">
<path fill-rule="evenodd" clip-rule="evenodd" d="M6.07473 4.99841L4.56709 2.94255C4.46457 2.80274 4.27082 2.76711 4.12526 2.86129C2.15284 4.13757 1.61065 6.08717 2.40198 7.52437C3.2674 9.09614 4.60216 11.0237 6.64953 13.0711C8.69689 15.1185 10.6245 16.4532 12.1963 17.3187C13.6335 18.11 15.5831 17.5678 16.8593 15.5954C16.9535 15.4498 16.9179 15.2561 16.7781 15.1535L14.7222 13.6459C14.4199 13.4242 14.019 13.3902 13.6836 13.5579L12.8642 13.9676C12.1672 14.3161 11.2118 14.4385 10.3074 13.9732C9.70269 13.6622 8.77074 13.071 7.71019 12.0104C6.64964 10.9499 6.05847 10.0179 5.74739 9.41328C5.2821 8.50885 5.40453 7.55342 5.75302 6.85644L6.16275 6.03699C6.33041 5.70167 6.29643 5.30073 6.07473 4.99841ZM3.03876 1.18215C0.49825 2.82601 -0.809508 5.83829 0.649991 8.48902C1.60252 10.219 3.04935 12.2994 5.23531 14.4853C7.42127 16.6713 9.50164 18.1181 11.2316 19.0706C13.8823 20.5301 16.8946 19.2224 18.5385 16.6819C19.2081 15.647 18.9548 14.2696 17.9608 13.5407L15.9049 12.0331C14.998 11.368 13.7952 11.266 12.7892 11.769L11.9698 12.1788C11.7325 12.2974 11.4581 12.3161 11.2223 12.1948C10.7926 11.9737 10.0312 11.503 9.1244 10.5962C8.2176 9.68943 7.74689 8.928 7.52584 8.49833C7.40451 8.26249 7.42327 7.98809 7.54187 7.75087L7.9516 6.93142C8.45459 5.92545 8.35265 4.72265 7.68754 3.81569L6.1799 1.75982C5.45101 0.765875 4.07359 0.512562 3.03876 1.18215Z" fill="#786F21"/>
</svg>
