<svg width="171" height="66" viewBox="0 0 171 66" fill="none" xmlns="http://www.w3.org/2000/svg">
<path d="M127.054 33.7115C126.427 34.154 125.583 34.4159 124.657 34.4589C125.077 34.7984 125.416 35.1893 125.626 35.6332C125.779 35.9585 125.839 36.3015 125.811 36.6239C125.934 36.5842 126.058 36.5445 126.183 36.5109C127.037 36.282 127.958 36.2024 128.915 36.2668C127.97 35.5514 127.281 34.6198 127.054 33.7115ZM130.793 37.2462C129.394 36.8873 127.933 36.9014 126.734 37.2164C125.483 37.5453 124.631 38.2145 123.894 39.0011C123.674 39.2363 123.076 38.9533 123.191 38.6545C123.312 38.3407 123.508 38.0624 123.75 37.8111C123.73 37.7163 123.781 37.6252 123.936 37.6141C123.942 37.6136 123.947 37.6113 123.953 37.6107C124.247 37.3539 124.601 37.1371 124.985 36.9529C125.179 36.5436 125.138 36.0167 124.848 35.5667C124.538 35.0845 124.033 34.7006 123.456 34.3925C122.63 34.2706 121.792 33.9883 121.029 33.5168C120.666 33.2927 120.798 32.8461 121.245 32.9472C121.994 33.1169 122.804 33.3829 123.532 33.7485C125.156 33.9624 126.756 33.4558 127.12 32.3057C127.243 31.9162 128.064 32.2407 127.962 32.6305C127.583 34.0679 128.872 35.8983 130.91 36.6024C131.403 36.7727 131.309 37.3785 130.793 37.2462Z" fill="#D3C75F"/>
<path d="M139.59 37.0055C138.963 37.448 138.119 37.7098 137.193 37.7529C137.613 38.0924 137.953 38.4832 138.162 38.9272C138.315 39.2524 138.375 39.5954 138.348 39.9178C138.47 39.8781 138.594 39.8384 138.719 39.8048C139.573 39.5759 140.494 39.4963 141.451 39.5607C140.506 38.8453 139.817 37.9137 139.59 37.0055ZM143.33 40.5402C141.93 40.1813 140.469 40.1954 139.27 40.5104C138.019 40.8393 137.168 41.5085 136.43 42.2951C136.21 42.5302 135.612 42.2472 135.727 41.9484C135.848 41.6347 136.045 41.3563 136.287 41.105C136.266 41.0103 136.317 40.9191 136.472 40.9081C136.478 40.9075 136.483 40.9052 136.489 40.9047C136.784 40.6478 137.137 40.431 137.521 40.2468C137.715 39.8376 137.674 39.3107 137.385 38.8606C137.074 38.3784 136.569 37.9945 135.992 37.6864C135.166 37.5645 134.328 37.2822 133.565 36.8108C133.202 36.5867 133.334 36.14 133.781 36.2412C134.53 36.4108 135.34 36.6769 136.068 37.0425C137.692 37.2563 139.293 36.7498 139.656 35.5996C139.779 35.2101 140.601 35.5347 140.498 35.9244C140.119 37.3619 141.408 39.1923 143.447 39.8963C143.939 40.0666 143.846 40.6725 143.33 40.5402Z" fill="#D3C75F"/>
<path d="M134.459 44.3661C135.056 44.8976 135.452 45.5113 135.591 46.1115C135.964 45.9482 136.408 45.8512 136.929 45.8531C137.31 45.8546 137.722 45.9205 138.116 46.0354C138.057 45.9456 137.997 45.8553 137.944 45.7656C137.587 45.1555 137.405 44.5477 137.394 43.9611C136.612 44.3428 135.543 44.4974 134.459 44.3661ZM138.411 43.0672C138.104 43.8455 138.257 44.7755 138.751 45.6303C139.267 46.5227 140.16 47.2648 141.185 47.9701C141.492 48.1809 141.203 48.4743 140.829 48.3106C140.436 48.139 140.079 47.9303 139.751 47.7008C139.638 47.685 139.522 47.6251 139.495 47.5239C139.493 47.5197 139.49 47.516 139.489 47.5118C139.149 47.2475 138.853 46.9578 138.593 46.6586C138.077 46.4117 137.44 46.2782 136.92 46.3254C136.362 46.3761 135.942 46.5796 135.621 46.852C135.549 47.3384 135.284 47.7842 134.781 48.1247C134.542 48.2866 133.987 48.068 134.069 47.8154C134.205 47.392 134.454 46.9597 134.831 46.6088C134.94 45.6448 134.176 44.4772 132.743 43.8985C132.258 43.7026 132.577 43.2805 133.06 43.4636C134.844 44.139 136.95 43.8763 137.617 42.7981C137.778 42.5374 138.524 42.7804 138.411 43.0672Z" fill="#D3C75F"/>
<path d="M14.868 58.204C14.58 56.62 14.472 53.884 14.472 50.608C14.472 49.132 14.508 47.548 14.544 45.928C13.212 44.992 12.096 44.02 11.196 43.084C11.052 42.688 11.52 42.256 11.88 42.544L12.312 42.976C12.816 43.3 13.608 43.732 14.58 44.092C14.796 38.476 15.228 32.428 15.84 27.964C10.8 28.648 5.688 30.736 2.88 35.488C2.16 36.964 1.836 38.368 1.836 39.7C1.836 43.948 5.148 47.116 9.504 46.936C10.044 46.9 10.692 46.828 11.16 46.648C11.484 46.54 11.808 46.756 11.448 47.008C11.268 47.116 10.152 47.44 8.676 47.44C6.552 47.44 3.672 46.792 1.908 44.056C1.08 42.76 0.648 41.14 0.648 39.412C0.648 37.864 1.008 36.208 1.764 34.696C4.392 29.656 11.016 27.208 16.02 26.776C16.164 25.984 16.272 25.264 16.416 24.616C16.704 24.22 18.036 24.544 17.928 25.12C17.82 25.588 17.712 26.128 17.64 26.704C22.5 26.524 29.34 28.108 32.004 32.86C32.76 34.228 33.12 35.56 33.12 36.82C33.12 41.896 27.396 45.82 20.268 46.216C18.72 46.216 17.28 46.036 15.984 45.676C19.62 48.088 24.732 50.608 29.088 50.608C32.76 50.608 36.18 48.772 39.312 46.648C40.86 45.604 39.24 47.584 38.556 48.16C36.036 50.32 32.724 51.904 29.736 51.904C25.38 51.904 20.088 49.6 15.948 46.9C15.84 49.168 15.804 51.328 15.804 53.344C15.804 55.36 15.84 57.232 15.948 58.78L16.056 58.96C16.056 59.14 15.984 59.248 15.768 59.284C15.372 59.248 15.12 58.528 14.868 58.204ZM18.288 27.748L17.46 27.82C16.848 32.212 16.308 38.476 16.02 44.56C17.28 44.92 18.756 45.172 20.412 45.136C26.928 44.524 31.932 40.744 31.932 36.388C31.932 35.236 31.572 34.048 30.816 32.86C28.296 29.188 23.904 27.712 19.368 27.712C19.008 27.712 18.648 27.712 18.288 27.748ZM44.0373 50.176C41.9133 50.284 39.1773 49.888 38.4573 47.656C38.3493 47.332 38.2773 46.972 38.2773 46.612C38.2773 45.028 39.3573 43.408 41.1213 43.336C42.2373 43.336 43.2813 44.416 42.8853 45.46C42.4173 46.612 40.8693 47.476 39.6093 47.476C39.7173 48.16 40.9773 49.312 42.2373 49.312C45.6213 49.312 48.1413 46.792 49.6533 45.208C50.4813 44.344 50.3373 45.172 49.8333 46.18C48.8253 48.268 46.5213 50.032 44.0373 50.176ZM41.6973 44.56C40.9413 43.804 39.5373 45.712 39.5733 46.612C41.0853 45.928 42.0933 44.956 41.6973 44.56ZM49.5141 49.096C48.7941 48.556 48.4341 47.872 48.4341 47.116C48.4341 46.324 48.8301 45.532 49.7301 44.92C50.7021 44.272 51.9261 43.948 53.1861 43.948C54.1941 43.948 55.2021 44.164 56.1021 44.56H56.1381L56.7501 43.732C56.9661 43.336 58.1901 44.128 57.9381 44.56C57.7581 45.1 57.4341 45.748 57.3621 46.432C57.3261 47.044 57.5061 47.764 58.1541 47.944C59.9901 48.304 63.0861 46.468 64.3821 45.028C64.9941 44.416 65.5341 45.316 63.5541 47.296C62.6541 48.196 60.1701 49.348 58.6581 48.988C57.4701 48.7 56.5701 48.016 56.1021 46.72C55.0941 47.62 52.7181 49.456 50.8101 49.456C50.3421 49.456 49.9101 49.348 49.5141 49.096ZM50.1621 48.304C51.8901 48.088 54.2301 46.612 55.4901 45.28C55.1301 45.172 54.6261 45.1 54.0861 45.1C52.2861 45.1 49.9101 45.784 49.5141 47.44C49.4061 47.872 49.6221 48.268 50.1621 48.304ZM64.8281 46.468C64.5041 48.016 65.4401 49.06 67.0601 49.06C70.0481 48.844 72.6401 46.936 74.8001 45.028C75.0161 44.884 75.2681 45.496 75.0161 45.964C74.4401 47.044 72.0641 49.888 67.6721 50.14C65.5841 50.14 63.5321 48.736 63.6401 46.396C63.6761 45.388 64.1081 44.416 64.9361 43.732C65.4401 43.336 66.0881 43.012 66.8801 43.012C67.2761 43.012 67.7441 43.084 68.2121 43.336C68.6801 43.588 69.0041 44.02 69.0401 44.38C69.0401 44.992 68.2841 45.244 67.9601 45.352C67.6001 45.496 67.2761 45.352 67.5281 44.884C67.6001 44.74 67.7441 44.452 67.7801 44.056C66.4481 43.768 65.1161 45.1 64.8281 46.468ZM81.7512 46.972C81.4992 46.288 81.4992 45.496 81.6072 44.92C79.5552 44.92 75.4152 47.62 75.2712 48.772V49.24C75.2712 49.78 74.2272 49.312 74.0832 48.736C74.0472 48.556 74.0472 48.412 74.0472 46.072C74.1192 40.168 74.9832 34.588 76.4232 29.368C76.4592 29.152 76.8192 29.152 77.2152 29.332C77.5392 29.548 77.7912 29.908 77.7192 30.124C76.4952 34.588 75.6312 39.268 75.3792 44.2L75.3072 46.324C76.4952 45.496 79.6992 43.372 81.7872 43.912C82.4712 44.092 83.0832 44.812 82.9752 45.208C82.9752 45.604 82.9032 46.072 82.9032 46.504C82.9032 47.116 83.0472 47.692 83.8752 47.944C84.6312 48.16 85.8192 48.232 87.2952 48.232C91.5432 48.232 97.7352 47.512 99.3552 47.044C99.6072 46.972 100.939 46.648 101.119 46.936C101.407 47.224 99.8952 47.8 99.6432 47.872C97.0872 48.7 91.8312 49.564 87.8352 49.564C86.5752 49.564 85.4592 49.456 84.5592 49.276C83.4792 48.988 82.2552 48.16 81.7512 46.972ZM114.086 49.672C112.898 49.672 111.674 48.736 111.278 47.512C111.134 47.08 111.062 46.612 111.062 46.144C111.062 45.568 111.17 44.956 111.458 44.452C111.638 44.092 111.854 43.768 112.178 43.66C112.466 43.588 112.862 43.768 113.15 44.092C113.438 44.38 113.366 44.596 113.186 44.704C112.682 45.028 112.358 46.072 112.358 47.008C112.358 47.656 112.502 48.232 112.898 48.484C114.374 49.492 116.786 45.676 117.074 44.38C117.182 43.876 118.442 44.524 118.37 45.064C118.334 45.316 118.298 45.892 118.298 46.54C118.442 47.404 118.694 48.268 119.702 48.376C122.186 48.268 124.346 46.36 125.534 45.172C125.858 44.74 125.822 45.82 125.39 46.504C124.67 47.62 122.834 49.564 120.35 49.42C118.946 49.42 117.83 48.556 117.326 47.368C116.606 48.412 115.562 49.672 114.086 49.672ZM125.065 49.816C124.633 49.6 124.309 48.7 125.101 48.88C125.425 48.952 125.821 48.988 126.289 48.988C127.441 48.988 128.881 48.808 129.817 48.592C128.917 48.124 127.549 47.44 126.829 47.044C125.893 46.504 124.885 46.144 124.741 45.064C124.453 43.156 128.377 42.004 130.213 41.752C130.789 41.68 131.509 42.364 131.221 42.724C129.889 43.192 126.613 43.804 126.217 44.74C126.001 45.244 126.829 45.604 127.549 46.036C128.917 46.792 129.997 47.332 130.717 47.908C131.509 48.592 130.825 49.6 129.889 49.852C129.241 50.032 128.305 50.14 127.369 50.14C126.469 50.14 125.605 50.032 125.065 49.816Z" fill="#2B363B"/>
</svg>
