<svg width="98" height="20" viewBox="0 0 98 20" fill="none" xmlns="http://www.w3.org/2000/svg">
<path d="M9.7325 0.526367L11.9176 7.25136H18.9887L13.268 11.4076L15.4531 18.1326L9.7325 13.9763L4.01188 18.1326L6.19696 11.4076L0.476342 7.25136H7.54742L9.7325 0.526367Z" fill="#C8B937"/>
<path d="M29.1976 0.526367L31.3827 7.25136H38.4538L32.7331 11.4076L34.9182 18.1326L29.1976 13.9763L23.477 18.1326L25.6621 11.4076L19.9414 7.25136H27.0125L29.1976 0.526367Z" fill="#C8B937"/>
<path d="M48.6624 0.526367L50.8475 7.25136H57.9186L52.198 11.4076L54.3831 18.1326L48.6624 13.9763L42.9418 18.1326L45.1269 11.4076L39.4063 7.25136H46.4774L48.6624 0.526367Z" fill="#C8B937"/>
<path d="M68.1275 0.526367L70.3126 7.25136H77.3837L71.6631 11.4076L73.8481 18.1326L68.1275 13.9763L62.4069 18.1326L64.592 11.4076L58.8714 7.25136H65.9424L68.1275 0.526367Z" fill="#C8B937"/>
<path d="M87.5925 0.526367L89.7776 7.25136H96.8486L91.128 11.4076L93.3131 18.1326L87.5925 13.9763L81.8719 18.1326L84.0569 11.4076L78.3363 7.25136H85.4074L87.5925 0.526367Z" fill="#C8B937"/>
</svg>
