<svg width="30" height="30" viewBox="0 0 30 30" fill="none" xmlns="http://www.w3.org/2000/svg">
<circle cx="15" cy="15" r="15" fill="white"/>
<path d="M25 14.9225C23.5 16.5584 22.0305 18.1363 20.5686 19.7258C19.0533 21.3617 17.5381 23.0092 16.0229 24.6451C15.9315 24.7379 15.8402 24.8424 15.7412 24.912C15.6041 25.0164 15.4975 24.9816 15.5051 24.6915C15.5051 24.5987 15.5051 24.5058 15.5051 24.413C15.5051 18.1247 15.5051 11.8364 15.5051 5.53642C15.5051 5.36239 15.429 5.13034 15.5737 5.02592C15.6955 4.94471 15.8097 5.09549 15.9087 5.19991C18.8935 8.37889 21.8782 11.5695 24.8554 14.7601C24.8858 14.7949 24.9163 14.8297 24.9848 14.9109L25 14.9225Z" fill="#CDC04D" fill-opacity="0.66"/>
<path d="M14.9949 15.0153C14.9949 18.1478 14.9949 21.2804 14.9949 24.4246C14.9949 24.8538 14.934 25.0395 14.6294 24.993C14.3249 24.9466 14.0127 24.993 13.7005 24.993C13.0457 24.993 12.8173 24.6334 12.8173 23.6124C12.8173 20.8395 12.8173 18.055 12.8173 15.2821C12.8173 12.3119 12.8173 9.35342 12.8173 6.38328C12.8173 5.32749 13.0305 5.00263 13.731 5.00263C14.0431 5.00263 14.3553 5.02583 14.6599 5.00263C14.9188 4.97942 14.9949 5.10704 14.9949 5.50151C14.9797 7.27663 14.9949 9.05179 14.9949 10.8269C14.9949 12.2192 14.9949 13.623 14.9949 15.0153Z" fill="#CDC04D" fill-opacity="0.66"/>
<path d="M8.44668 18.1595C7.46445 18.1595 6.48983 18.1595 5.5076 18.1595C5.05074 18.1595 5.00506 18.0899 5.00506 17.4286C5.00506 15.9551 4.87562 16.0247 5.92638 16.0247C7.72333 16.0247 9.52028 16.0247 11.3172 16.0247C11.8198 16.0247 11.8655 16.1059 11.8731 16.8716C11.8731 17.7302 11.599 18.1595 11.0507 18.1595C10.1827 18.1595 9.3147 18.1595 8.44668 18.1595Z" fill="#CDC04D" fill-opacity="0.66"/>
<path d="M9.08615 12.0219C9.87803 12.0219 10.6699 12.0335 11.4618 12.0219C11.774 12.0219 11.8729 12.2075 11.8729 12.66C11.8729 13.9942 11.8882 13.9942 11.0125 13.9942C9.60391 13.9942 8.18767 13.9942 6.77905 13.9942C6.31458 13.9942 6.29174 13.9594 6.29174 13.2633C6.29174 11.8942 6.21559 12.0451 7.08361 12.0451C7.75366 12.0451 8.42371 12.0451 9.09376 12.0451L9.08615 12.0219Z" fill="#CDC04D" fill-opacity="0.66"/>
<path d="M9.03297 20.0969C9.78677 20.0969 10.5482 20.1085 11.302 20.0969C11.6218 20.0969 11.7436 20.2594 11.7436 20.7583C11.7436 22.0229 11.7512 22.0228 10.9213 22.0228C9.55835 22.0228 8.19541 22.0228 6.83246 22.0228C6.33754 22.0228 6.29947 21.9532 6.29947 21.2223C6.29947 21.0715 6.29947 20.9207 6.29947 20.7699C6.26901 20.271 6.4213 20.0969 6.74109 20.1085C7.51013 20.1201 8.27916 20.1085 9.0482 20.1085L9.03297 20.0969Z" fill="#CDC04D" fill-opacity="0.66"/>
<path d="M10.0305 10.3511C9.55842 10.3511 9.08634 10.3511 8.62188 10.3511C8.35538 10.3511 8.23355 10.1887 8.23355 9.78266C8.23355 8.15836 8.14218 8.2744 9.16248 8.2744C9.91629 8.2744 10.6701 8.286 11.4315 8.2744C11.7513 8.2744 11.8808 8.46005 11.8808 8.94734C11.8808 10.5484 11.9188 10.3395 11.0051 10.3511C10.6853 10.3511 10.3579 10.3511 10.0381 10.3511H10.0305Z" fill="#CDC04D" fill-opacity="0.66"/>
</svg>
